<?xml version="1.0" encoding="UTF-8" standalone="no"?>
<!-- Created with Inkscape (http://www.inkscape.org/) -->

<svg
   width="1155.243"
   height="377.39984"
   viewBox="0 0 305.65805 99.853708"
   version="1.1"
   id="svg5"
   inkscape:version="1.1.1 (3bf5ae0d25, 2021-09-20)"
   sodipodi:docname="logo.svg"
   xmlns:inkscape="http://www.inkscape.org/namespaces/inkscape"
   xmlns:sodipodi="http://sodipodi.sourceforge.net/DTD/sodipodi-0.dtd"
   xmlns="http://www.w3.org/2000/svg"
   xmlns:svg="http://www.w3.org/2000/svg">
  <sodipodi:namedview
     id="namedview7"
     pagecolor="#505050"
     bordercolor="#eeeeee"
     borderopacity="1"
     inkscape:pageshadow="0"
     inkscape:pageopacity="0"
     inkscape:pagecheckerboard="0"
     inkscape:document-units="px"
     showgrid="true"
     showguides="false"
     inkscape:zoom="0.58550243"
     inkscape:cx="662.67872"
     inkscape:cy="239.96485"
     inkscape:window-width="1366"
     inkscape:window-height="710"
     inkscape:window-x="0"
     inkscape:window-y="0"
     inkscape:window-maximized="1"
     inkscape:current-layer="g28"
     fit-margin-top="0"
     fit-margin-left="0"
     fit-margin-right="0"
     fit-margin-bottom="0">
    <inkscape:grid
       type="xygrid"
       id="grid30"
       originx="-3.8255896"
       originy="-42.945828" />
  </sodipodi:namedview>
  <defs
     id="defs2" />
  <g
     inkscape:label="Camada 1"
     inkscape:groupmode="layer"
     id="layer1"
     transform="translate(-3.8255896,-42.945827)">
    <path
       style="fill:#000000;stroke-width:0.193863"
       d="m 49.272019,142.62741 c -2.004483,-0.39913 -3.030752,-1.12256 -6.92346,-4.88032 -2.048402,-1.97738 -3.910765,-3.70193 -4.138595,-3.83234 -0.60598,-0.34683 -1.190081,-0.31224 -5.732742,0.33961 -2.263455,0.3248 -4.750258,0.5932 -5.526232,0.59645 -2.785286,0.0117 -5.396792,-1.39136 -6.934039,-3.72543 -1.008783,-1.53168 -1.193915,-2.19488 -2.1374,-7.65687 -0.42151,-2.44019 -0.901961,-4.70252 -1.067657,-5.02742 -0.374344,-0.73396 -0.866479,-1.0515 -5.274293,-3.40316 -5.2111773,-2.78029 -5.809803,-3.27435 -6.9935471,-5.77214 -0.5094843,-1.07505 -0.6135793,-1.5521 -0.6900524,-3.16244 -0.1144913,-2.41066 0.00137,-2.7759 2.6018262,-8.214691 1.5342312,-3.208571 2.0318523,-4.438768 2.0318523,-5.023056 0,-0.584297 -0.4976211,-1.814495 -2.0318523,-5.023064 -2.6006392,-5.438788 -2.7163175,-5.804025 -2.6018262,-8.214692 0.076474,-1.61034 0.1805681,-2.087393 0.6900524,-3.162439 1.1837441,-2.497787 1.7823698,-2.991861 6.9935471,-5.772137 4.407814,-2.351666 4.899949,-2.669208 5.274293,-3.40318 0.165696,-0.324883 0.645841,-2.57795 1.066982,-5.006813 0.42114,-2.428862 0.90082,-4.887323 1.065944,-5.463246 0.72354,-2.523503 2.930694,-4.743662 5.535481,-5.568089 1.577297,-0.499219 3.293816,-0.449441 7.924636,0.229811 4.377627,0.642111 5.186448,0.688744 5.805027,0.334695 0.22783,-0.130402 2.090193,-1.854957 4.138595,-3.832348 4.082042,-3.940536 4.965952,-4.532663 7.368947,-4.93639 1.610275,-0.270544 3.352518,8.29e-4 4.98832,0.776952 0.946112,0.448899 1.948005,1.298829 4.903109,4.159438 2.551965,2.470357 3.952242,3.684972 4.475391,3.882 0.702106,0.264429 1.109747,0.237414 5.237774,-0.347105 2.462026,-0.348618 5.045493,-0.631379 5.741037,-0.628356 2.830345,0.01231 5.351489,1.382605 6.916985,3.759577 0.951985,1.445439 1.177481,2.261637 2.108836,7.633061 0.421136,2.428863 0.901279,4.68193 1.066983,5.006813 0.374342,0.733972 0.866472,1.051514 5.274292,3.40318 5.211179,2.780276 5.8098,3.27435 6.993544,5.772137 0.509479,1.075046 0.613574,1.552099 0.690053,3.162439 0.114489,2.410667 -9.08e-4,2.775904 -2.601836,8.214692 -1.534222,3.208569 -2.031841,4.438767 -2.031841,5.023064 0,0.584288 0.497619,1.814485 2.031841,5.023056 2.60065,5.438791 2.716325,5.804031 2.601836,8.214691 -0.0765,1.61034 -0.180574,2.08739 -0.690053,3.16244 -1.183744,2.49779 -1.782365,2.99185 -6.993544,5.77214 -4.40782,2.35166 -4.89995,2.6692 -5.274292,3.40316 -0.165704,0.3249 -0.645847,2.57797 -1.066983,5.00683 -0.931355,5.37142 -1.156851,6.18762 -2.108836,7.63306 -1.566055,2.37782 -4.089655,3.74898 -6.916985,3.75822 -0.695544,0.002 -3.289298,-0.27689 -5.763896,-0.62037 -4.09482,-0.56836 -4.565658,-0.59945 -5.237776,-0.34575 -0.493787,0.1864 -1.96922,1.47012 -4.45253,3.87401 -2.910128,2.81707 -3.964398,3.71405 -4.870793,4.14412 -1.849115,0.87733 -3.583909,1.11098 -5.466123,0.7362 z M 64.643241,118.5257 c 3.882775,-0.92791 7.101741,-4.2151 7.88517,-8.0523 1.344583,-6.58574 -3.557152,-12.727626 -10.157718,-12.727626 -2.922319,0 -5.249107,0.981998 -7.314551,3.087046 -2.251543,2.29469 -3.237732,4.89411 -3.050206,8.03974 0.114034,1.9128 0.630975,3.56846 1.555598,4.98227 2.485178,3.79999 6.914249,5.66681 11.081707,4.67087 z m -4.385554,-6.06199 c -1.627929,-0.82253 -2.535285,-2.35228 -2.535285,-4.27437 0,-2.68447 1.957562,-4.65773 4.620683,-4.65773 4.138409,0 6.209488,4.90478 3.399548,8.05089 -1.231859,1.37921 -3.710973,1.77752 -5.484946,0.88121 z m -26.83241,1.98477 c 0.629378,-0.33932 38.607663,-38.874879 38.909333,-39.480273 0.570982,-1.145845 0.01167,-2.838745 -1.181602,-3.576412 -0.691321,-0.427372 -1.864328,-0.50842 -2.517283,-0.173937 -0.597091,0.305868 -38.60387,38.812532 -38.938531,39.450662 -1.189939,2.269 1.490217,4.98645 3.728083,3.77996 z m 8.908056,-26.77781 c 2.687857,-0.809039 5.232802,-2.878007 6.480849,-5.268747 1.723033,-3.300627 1.543509,-7.541899 -0.448129,-10.587003 -3.738322,-5.71568 -11.337412,-6.533767 -16.07472,-1.730544 -3.273412,3.318954 -3.99664,8.034086 -1.885114,12.290203 1.156872,2.331854 3.926612,4.610769 6.463016,5.317709 1.329398,0.370525 4.199003,0.359174 5.464098,-0.02162 z M 38.56584,82.151169 c -3.56682,-0.937662 -4.806108,-5.337116 -2.270446,-8.060059 1.349515,-1.449201 3.994851,-1.741126 5.758624,-0.635493 1.778782,1.115035 2.661122,3.613378 1.996862,5.654107 -0.296976,0.912354 -1.388194,2.153143 -2.315388,2.632742 -0.828428,0.428511 -2.348647,0.624531 -3.169652,0.408703 z"
       id="path333" />
    <g
       id="g28"
       transform="matrix(0.26458333,0,0,0.26458333,37.03029,-63.04968)">
      <rect
         x="0"
         y="0"
         width="1024"
         height="1024"
         fill="#ffffff"
         fill-opacity="0"
         id="rect16" />
      <path
         fill-rule="evenodd"
         fill="#000000"
         d="m 1013.608,585.50101 v 26.205 c 0,8.735 2.072,12.732 8.883,12.732 2.812,0 5.033,-0.296 6.662,-0.592 l 0.148,17.025 c -2.961,1.185 -8.291,1.925 -14.657,1.925 -7.255,0 -13.325,-2.517 -16.87799,-6.218 -4.145,-4.293 -6.21801,-11.252 -6.21801,-21.467 v -29.61 h -9.623 v -16.582 h 9.623 v -15.693 l 22.06,-5.034 v 20.727 h 16.137 v 16.582 z m -64.844,15.693 c 0,-9.327 -3.257,-15.693 -11.4,-15.693 -6.218,0 -9.919,4.293 -11.399,8.439 -0.593,1.332 -0.889,3.553 -0.889,5.625 v 41.751 h -22.503 v -49.301 c 0,-9.031 -0.296,-16.73 -0.593,-23.096 h 19.543 l 1.036,9.919 h 0.444 c 2.962,-4.589 10.364,-11.548 22.356,-11.548 14.805,0 25.909,9.772 25.909,31.091 v 42.935 h -22.504 z m -84.236,29.906 h -0.444 c -2.813,4.442 -9.624,11.844 -22.652,11.844 -14.657,0 -25.465,-9.179 -25.465,-31.535 v -42.49 h 22.652 v 38.937 c 0,10.512 3.405,16.878 11.252,16.878 6.218,0 9.771,-4.293 11.252,-7.847 0.592,-1.332 0.74,-3.109 0.74,-4.885 v -43.083 h 22.652 v 49.153 c 0,9.475 0.296,17.174 0.592,23.244 h -19.543 z m -100.375,11.844 c -21.171,0 -37.456,-13.917 -37.456,-37.308 0,-23.392 15.397,-38.346 38.641,-38.346 22.207,0 37.012,15.25 37.012,37.013 0,26.501 -18.802,38.641 -38.197,38.641 z m 0.593,-59.664 c -10.808,0 -14.806,11.104 -14.806,21.763 0,12.437 5.182,21.764 14.806,21.764 8.734,0 14.36,-8.735 14.36,-21.764 0,-10.807 -4.145,-21.763 -14.36,-21.763 z m -60.699,1.332 c -11.844,0 -19.543,8.439 -19.395,20.283 0,13.325 8.883,20.283 19.839,20.283 5.33,0 9.475,-0.888 12.88,-2.221 l 2.665,16.582 c -3.997,1.777 -11.548,3.257 -20.135,3.257 -23.392,0 -38.345,-14.213 -38.345,-37.012 0,-21.172 14.509,-38.494 41.454,-38.494 5.923,0 12.437,1.037 17.174,2.813 l -3.553,16.73 c -2.665,-1.184 -6.662,-2.221 -12.584,-2.221 z m -51.962,34.792 c 0,13.473 -10.66,23.392 -31.387,23.392 -9.475,0 -17.914,-2.073 -23.392,-5.034 l 3.998,-16.137 c 4.145,2.517 12.732,5.478 19.394,5.478 6.811,0 9.623,-2.369 9.623,-6.07 0,-3.702 -2.22,-5.478 -10.659,-8.291 -14.953,-5.034 -20.727,-13.177 -20.579,-21.763 0,-13.473 11.548,-23.689 29.462,-23.689 8.439,0 15.989,1.925 20.431,4.146 l -3.998,15.545 c -3.257,-1.776 -9.475,-4.145 -15.693,-4.145 -5.478,0 -8.587,2.221 -8.587,5.922 0,3.405 2.813,5.182 11.696,8.291 13.769,4.737 19.543,11.696 19.691,22.355 z m -80.092,-59.368 c -7.106,0 -11.844,-5.034 -11.696,-11.252 -0.148,-6.514 4.59,-11.4 11.844,-11.4 7.255,0 11.844,4.886 11.992,11.4 0,6.218 -4.737,11.252 -12.14,11.252 z m -71.95,52.262 c 0.741,9.327 9.92,13.768 20.431,13.768 7.699,0 13.917,-1.036 19.987,-2.961 l 2.961,15.25 c -7.402,2.961 -16.434,4.441 -26.205,4.441 -24.576,0 -38.641,-14.213 -38.641,-36.864 0,-18.359 11.4,-38.642 36.568,-38.642 23.392,0 32.275,18.211 32.275,36.125 0,3.849 -0.444,7.254 -0.74,8.883 z m 13.769,-30.054 c -9.475,0 -13.325,8.586 -13.917,14.657 h 26.649 c 0,-5.478 -2.368,-14.657 -12.732,-14.657 z m -107.777,60.108 c -11.696,0 -19.986,-0.74 -25.612,-1.481 v -98.009 c 8.29,-1.332 19.098,-2.072 30.498,-2.072 18.95,0 31.239,3.405 40.862,10.659 10.363,7.699 16.877,19.987 16.877,37.605 0,19.098 -6.958,32.275 -16.581,40.418 -10.512,8.735 -26.501,12.88 -46.044,12.88 z m 7.255,-84.241 c -5.034,0 -8.291,0.445 -10.216,0.889 v 65.29 c 1.925,0.444 5.034,0.444 7.847,0.444 20.431,0.148 33.755,-11.104 33.755,-34.94 0.148,-20.727 -11.992,-31.683 -31.386,-31.683 z m 170.103,83.205 h -22.504 v -72.397 h 22.504 z"
         id="path18" />
    </g>
    <circle
       id="path327"
       style="fill:#000000;stroke:#000000;stroke-width:0.264583"
       cx="122.46249"
       cy="53.77504"
       r="0.060191453" />
    <circle
       id="path329"
       style="fill:#000000;stroke:#000000;stroke-width:0.264583"
       cx="122.46249"
       cy="53.77504"
       r="0.060191453" />
    <path
       style="fill:none;stroke:#000000;stroke-width:1.19983px;stroke-linecap:butt;stroke-linejoin:miter;stroke-opacity:1"
       d="m 122.14253,134.9375 c 0,-85.699185 0,-84.666667 0,-84.666667"
       id="path366" />
  </g>
</svg>
