<?xml version="1.0" encoding="UTF-8" standalone="no"?>
<!-- Created with Inkscape (http://www.inkscape.org/) -->

<svg
   width="630.23901mm"
   height="480.9679mm"
   viewBox="0 0 630.23901 480.96789"
   version="1.1"
   id="svg5"
   inkscape:version="1.1.1 (3bf5ae0d25, 2021-09-20)"
   sodipodi:docname="student2.svg"
   xmlns:inkscape="http://www.inkscape.org/namespaces/inkscape"
   xmlns:sodipodi="http://sodipodi.sourceforge.net/DTD/sodipodi-0.dtd"
   xmlns="http://www.w3.org/2000/svg"
   xmlns:svg="http://www.w3.org/2000/svg">
  <sodipodi:namedview
     id="namedview7"
     pagecolor="#505050"
     bordercolor="#eeeeee"
     borderopacity="1"
     inkscape:pageshadow="0"
     inkscape:pageopacity="0"
     inkscape:pagecheckerboard="0"
     inkscape:document-units="mm"
     showgrid="false"
     inkscape:zoom="0.21603185"
     inkscape:cx="909.5881"
     inkscape:cy="965.13546"
     inkscape:window-width="1366"
     inkscape:window-height="710"
     inkscape:window-x="0"
     inkscape:window-y="0"
     inkscape:window-maximized="1"
     inkscape:current-layer="layer1" />
  <defs
     id="defs2" />
  <g
     inkscape:groupmode="layer"
     id="layer2"
     inkscape:label="Layer 2"
     style="display:inline"
     transform="translate(-3.1488e-6,19.151347)">
    <path
       style="display:inline;fill:#ffffff;stroke:none;stroke-width:7.5px;stroke-linecap:butt;stroke-linejoin:miter;stroke-opacity:1"
       d="m 9987.4642,2791.4266 c 0,0 -824.7157,664.8435 313.8098,2337.7086 1138.526,1672.8644 1146.343,1992.5715 963.671,2592.7978 -109.335,359.2538 -1059.617,1564.1555 546.818,5729.065 647.006,1677.454 1974.279,2810.031 4492.586,2806.053 8486.484,-13.407 10383.024,-3587.779 9750.217,-6244.739 -632.807,-2656.9595 713.869,-1014.3899 878.776,-5523.2737 42.959,-1174.5716 -744.79,-1703.4437 -744.79,-1703.4437 L 9957.9004,2761.9981 Z"
       id="path174"
       transform="matrix(0.03527778,0,0,-0.03527778,-321.6261,554.36169)"
       sodipodi:nodetypes="cssssssccc" />
  </g>
  <g
     inkscape:label="Layer 1"
     inkscape:groupmode="layer"
     id="layer1"
     transform="translate(135.2938,73.766183)"
     style="display:inline">
    <g
       id="g17"
       transform="matrix(0.03527778,0,0,-0.03527778,-456.91991,499.74687)">
      <path
         d="m 15905.7,13229.3 -140.2,-43 -94.1,217.9 -212.7,-37.7 -97.1,151.6 -76.8,-49.2 129.9,-202.7 201.6,35.7 97.9,-226.7 211,64.8 -19.5,89.3"
         style="fill:#50bfa5;fill-opacity:1;fill-rule:nonzero;stroke:none"
         id="path21" />
      <path
         d="m 24894.8,5392.2 -140.2,-43 -94.1,217.9 -212.7,-37.7 -97.1,151.6 -76.7,-49.2 129.8,-202.6 201.6,35.6 97.9,-226.7 211,64.8 -19.5,89.3"
         style="fill:#50bfa5;fill-opacity:1;fill-rule:nonzero;stroke:none"
         id="path23" />
      <path
         d="m 15042,2812.5 c 0,0 -748,2535.2 -808,3094.4 -60,559.3 358.3,386 358.3,386 0,0 -351.9,1065.6 -97.5,1318.5 254.5,252.9 484,-218.5 484,-218.5 0,0 77,1293.6 348.3,1294 505.2,0.9 495.3,-1410.7 495.3,-1410.7 0,0 128.9,552.6 399.5,401.1 408,-228.5 -177.1,-1336.1 -177.1,-1336.1 0,0 519.9,-0.3 702.5,-262.5 C 17075,5608.4 15042,2812.5 15042,2812.5"
         style="fill:#50bfa5;fill-opacity:1;fill-rule:nonzero;stroke:none"
         id="path25" />
      <path
         d="m 15286.5,3148 c 0,0 -2156.3,360.6 -2625.3,742.7 -469,382.1 -4.8,554.3 -4.8,554.3 0,0 -1083.2,555.3 -1070.7,932.9 12.6,377.6 550.7,185.6 550.7,185.6 0,0 -912.7,1040.8 -696.6,1238.5 402.4,368.1 1457.6,-713.8 1457.6,-713.8 0,0 -313.3,514.5 16.6,596 497.7,122.7 864.9,-1145.9 864.9,-1145.9 0,0 -93.3,501 249.8,434.2 615.7,-119.7 1257.8,-2824.5 1257.8,-2824.5"
         style="fill:#50bfa5;fill-opacity:1;fill-rule:nonzero;stroke:none"
         id="path27" />
      <path
         d="m 14028.7,5972.5 c -343.9,62.2 -249.8,-434.2 -249.8,-434.2 0,0 -367.2,1268.6 -864.9,1145.9 -329.9,-81.5 -16.6,-596 -16.6,-596 0,0 -1055.2,1081.9 -1457.6,713.8 l 3839.5,-3654.6 c -68.4,349.1 -673.9,2720.9 -1250.6,2825.1"
         style="fill:#3c8f7c;fill-opacity:1;fill-rule:nonzero;stroke:none"
         id="path29" />
      <path
         d="m 15900,2850.6 c 0,0 -1135.6,1154.8 -1707.4,1275.1 -571.9,120.2 -469,-286.6 -469,-286.6 0,0 -1134.6,992.2 -1397.6,751.8 -262.9,-240.4 21.5,-472.5 21.5,-472.5 0,0 -945.1,167.4 -1080.3,-142.7 -207.9,-476.5 1346.4,-735.9 1346.4,-735.9 0,0 -651.4,-45.2 -500.3,-344 227.8,-450.6 3786.7,-45.2 3786.7,-45.2"
         style="fill:#355389;fill-opacity:1;fill-rule:nonzero;stroke:none"
         id="path31" />
      <path
         d="m 11267.2,3975.7 c 135.2,310.1 1080.3,142.7 1080.3,142.7 0,0 -284.4,232.1 -21.5,472.5 263,240.4 1362.3,-616.9 1362.3,-616.9 0,0 -259.2,495.5 312.6,375.2 571.9,-120.3 1899.1,-1498.6 1899.1,-1498.6 l -4632.8,1125.1"
         style="fill:#466eb6;fill-opacity:1;fill-rule:nonzero;stroke:none"
         id="path33" />
      <path
         d="m 17707.9,14760.9 c -382.3,-62.8 -495.8,-564.5 -178,-788.9 57.1,-40.3 96.6,-100.9 113.4,-168.8 l 57.8,-233.3 c 16,-64.3 78.6,-105.6 144,-94.9 l 144.8,23.9 c 65.4,10.7 111.6,69.9 106,135.9 -20.1,241 -44.9,328.4 33.4,435.8 229.1,314.3 -39.1,753.3 -421.4,690.3"
         style="fill:#f7cc7f;fill-opacity:1;fill-rule:nonzero;stroke:none"
         id="path35" />
      <path
         d="m 17925.4,14423.8 c -11.9,-27.4 -7.4,-62.4 -4.6,-102.7 31.3,17.8 67.6,40.1 79.4,72.7 8.3,22.9 -1,55.2 -24.3,61.2 -2.6,0.6 -42.1,-12 -50.5,-31.2 z m -354.3,-148 c 19.5,-20.9 52.1,-30.2 99.7,-28 -8.2,35.1 -20.4,66.6 -44.5,89 -54.4,50.6 -87.8,-25.8 -55.2,-61 z m 175.8,-534.8 c -24.9,206.4 -59.8,424.4 -71.7,486.2 -219.1,-12.1 -135.8,218.8 -34.7,124.9 28.8,-26.7 42.4,-63 51.4,-102.8 72.7,6.6 143.9,27.3 208.7,60.8 -3.5,50.9 -8.5,89.5 5.7,122.1 21.5,49.2 83.8,62.6 109.2,14.6 9.5,-18 11.2,-41 4.3,-60.1 -14.7,-40.7 -58.9,-67.6 -97.5,-88.6 11.6,-164.1 27.5,-329.5 47.6,-492.3 l -20.6,-2.6 c -19.8,160.2 -35.6,322.9 -47.1,484.4 -64.4,-32 -134.4,-52.1 -206.1,-58.8 15,-79.1 48.1,-291.5 71.5,-485.3 l -20.7,-2.5"
         style="fill:#fae0b2;fill-opacity:1;fill-rule:nonzero;stroke:none"
         id="path37" />
      <path
         d="m 17641.6,13809 c 0.5,-1.9 1.2,-3.8 1.7,-5.8 l 57.8,-233.3 c 16,-64.3 78.6,-105.6 144,-94.9 l 144.8,23.9 c 65.4,10.7 111.6,69.9 106,135.9 -8.9,107.2 -18.8,184 -20.1,245.6 l -434.2,-71.4"
         style="fill:#96d9c9;fill-opacity:1;fill-rule:nonzero;stroke:none"
         id="path39" />
      <path
         d="m 17424.5,14935.2 -114.3,208.7 c -11,20.1 -3.6,45.5 16.6,56.5 20.2,11.1 45.5,3.7 56.6,-16.5 l 114.3,-208.6 c 11,-20.2 3.6,-45.6 -16.6,-56.6 -20.3,-11.1 -45.6,-3.6 -56.6,16.5"
         style="fill:#fae0b2;fill-opacity:1;fill-rule:nonzero;stroke:none"
         id="path41" />
      <path
         d="m 17174.7,14430.5 -249.2,21.8 c -22.9,2 -39.9,22.2 -37.8,45.2 2,22.9 22.2,39.9 45.1,37.9 l 249.2,-21.8 c 22.9,-2 39.9,-22.2 37.9,-45.2 -2,-22.9 -22.2,-39.9 -45.2,-37.9"
         style="fill:#fae0b2;fill-opacity:1;fill-rule:nonzero;stroke:none"
         id="path43" />
      <path
         d="m 16927.7,13666.7 c -16.2,16.4 -16.1,42.7 0.3,58.9 61.3,60.5 128.6,115.5 200.2,163.3 19.1,12.8 45,7.7 57.8,-11.5 12.8,-19.1 7.7,-45 -11.5,-57.8 -67.2,-44.9 -130.4,-96.5 -187.9,-153.3 -16.3,-16.1 -42.7,-16.1 -58.9,0.4"
         style="fill:#fae0b2;fill-opacity:1;fill-rule:nonzero;stroke:none"
         id="path45" />
      <path
         d="m 18040.1,14946.5 c -22.2,5.9 -35.4,28.8 -29.5,51 28.2,105.6 45.5,214.6 51.4,323.7 1.3,23 20.9,40.7 43.9,39.4 23,-1.2 40.6,-20.8 39.4,-43.8 -6.2,-115 -24.4,-229.6 -54.1,-340.8 -6,-22.4 -29,-35.4 -51.1,-29.5"
         style="fill:#fae0b2;fill-opacity:1;fill-rule:nonzero;stroke:none"
         id="path47" />
      <path
         d="m 18296.7,14626.2 c -6.6,22.1 5.8,45.3 27.9,52 l 259,78 c 22.1,6.7 45.3,-5.8 52,-27.9 6.6,-22 -5.9,-45.3 -27.9,-51.9 l -259,-78.1 c -22,-6.6 -45.3,5.8 -52,27.9"
         style="fill:#fae0b2;fill-opacity:1;fill-rule:nonzero;stroke:none"
         id="path49" />
      <path
         d="m 18722.2,13937 c -3.7,0 -7.5,0.5 -11.3,1.5 -89.8,25.3 -177,60.3 -259.4,104 -20.3,10.8 -28,36.1 -17.2,56.4 10.8,20.3 36,28 56.3,17.2 77.1,-40.9 158.8,-73.7 242.9,-97.3 22.1,-6.2 35,-29.2 28.8,-51.4 -5.2,-18.4 -21.9,-30.4 -40.1,-30.4"
         style="fill:#fae0b2;fill-opacity:1;fill-rule:nonzero;stroke:none"
         id="path51" />
      <path
         d="m 22516.1,12094 -130.7,309.1 -328.6,67.5 c -37.4,7.7 -49.8,55 -20.9,80 l 253.5,219.8 -37.4,333.4 c -4.2,38 36.9,64.3 69.7,44.6 l 287.3,-173.2 305.6,138.6 c 34.8,15.7 72.6,-15.2 63.9,-52.5 l -75.9,-326.8 226.2,-247.8 c 25.8,-28.2 8,-73.7 -30.1,-77 l -334.3,-28.8 -165.7,-291.7 c -18.9,-33.2 -67.7,-30.3 -82.6,4.8"
         style="fill:#f7cc7f;fill-opacity:1;fill-rule:nonzero;stroke:none"
         id="path53" />
      <path
         d="m 24596.4,13154.3 -53.7,-216.3 -357.7,48 -117.5,-306.6 -273.5,-7.9 4,-138.4 365.7,10.5 111.5,290.5 372,-49.9 80.8,325.6 -131.6,44.5"
         style="fill:#f48c7f;fill-opacity:1;fill-rule:nonzero;stroke:none"
         id="path55" />
      <path
         d="m 21410.1,2784.1 h -6286.5 c -240.1,0 -434.7,201.9 -434.7,450.9 v 268.2 c 0,249 194.6,450.9 434.7,450.9 h 6286.5 v 0 c -287.5,-326 -292.5,-824.2 -11.5,-1156.4 l 11.5,-13.6"
         style="fill:#b75742;fill-opacity:1;fill-rule:nonzero;stroke:none"
         id="path57" />
      <path
         d="m 21313.1,3820 h -3486.9 c -240.1,0 -434.7,-201.9 -434.7,-450.9 v 0 c 0,-249.1 194.6,-450.9 434.7,-450.9 h 3487.2 c -163,276.6 -162.7,625.9 -0.3,901.8"
         style="fill:#fae0b2;fill-opacity:1;fill-rule:nonzero;stroke:none"
         id="path59" />
      <path
         d="m 19201.6,4766.7 c 9.1,17.1 -4.8,37 -25.9,37 h -3326.4 c -260.8,0 -472.1,-190.2 -472.1,-424.9 v 0 c 0,-234.6 211.3,-424.9 472.1,-424.9 h 3327.3 c 21.2,0 35.2,20 25.9,37.2 v 0 c -131.7,245.6 -131.4,531.1 -0.9,775.6"
         style="fill:#86b1f2;fill-opacity:1;fill-rule:nonzero;stroke:none"
         id="path61" />
      <path
         d="M 19180.6,4724.6 H 17532 c -306,0 -554,-159.4 -554,-356 0,-196.7 248,-356.1 554,-356.1 h 1659.4 c -113.4,226.6 -116.5,484.6 -10.8,712.1"
         style="fill:#f7cc7f;fill-opacity:1;fill-rule:nonzero;stroke:none"
         id="path63" />
      <path
         d="m 18754.8,4555.8 h -214.7 c -46.1,0 -83.6,-15.5 -83.6,-34.6 v -3.1 h 298.3 v 37.7"
         style="fill:#b75742;fill-opacity:1;fill-rule:nonzero;stroke:none"
         id="path65" />
      <path
         d="m 18938,4469 c 0,48 -56.1,86.8 -125.3,86.8 h -275.5 c 52.5,0 95,-29.5 95,-65.8 l -1.3,-930.9 152.2,119.7 155.2,-119.7 -0.3,909.9"
         style="fill:#f47458;fill-opacity:1;fill-rule:nonzero;stroke:none"
         id="path67" />
      <path
         d="m 18590,4834.3 h -1935.5 c -171.6,0 -310.7,165.2 -310.7,368.9 v 0 c 0,203.7 139.1,368.8 310.7,368.8 H 18590 v 0 c -147.9,-204.5 -153.7,-504.4 -13.8,-716.7 l 13.8,-21"
         style="fill:#fae0b2;fill-opacity:1;fill-rule:nonzero;stroke:none"
         id="path69" />
      <path
         d="m 16344,5203.2 v 0 c 0,203.7 142.4,368.8 318.1,368.8 h 1964.8 c 9.2,0 16.6,8.7 16.5,19.3 v 0 c -0.1,10.5 -7.5,18.9 -16.5,18.9 h -3117 c -193.8,0 -351,-182.2 -351,-407 v 0 c 0,-224.9 157.2,-407.1 351,-407.1 h 3117 c 9,0 16.4,8.5 16.5,18.9 v 0 c 0.1,10.7 -7.4,19.3 -16.5,19.3 h -1964.8 c -175.7,0 -318.1,165.2 -318.1,368.9"
         style="fill:#466eb6;fill-opacity:1;fill-rule:nonzero;stroke:none"
         id="path71" />
      <path
         d="m 18252,5390.8 h -214.7 c -46.1,0 -83.6,-15.3 -83.6,-34 v -3.1 h 298.3 v 37.1"
         style="fill:#184655;fill-opacity:1;fill-rule:nonzero;stroke:none"
         id="path73" />
      <path
         d="m 18435.2,5305.6 c 0,47 -56.1,85.2 -125.3,85.2 h -275.5 c 52.5,0 95,-29 95,-64.6 l -1.3,-912.9 152.2,117.4 155.2,-117.4 -0.3,892.3"
         style="fill:#3c8f7c;fill-opacity:1;fill-rule:nonzero;stroke:none"
         id="path75" />
      <path
         d="m 21673.8,11029.5 285.7,75.2 -193.6,-2583 -342.8,-11.4 172.9,2425.4 c 3.2,44.7 34.5,82.4 77.8,93.8"
         style="fill:#184655;fill-opacity:1;fill-rule:nonzero;stroke:none"
         id="path77" />
      <path
         d="m 21791.5,8448.1 c -6.4,-0.6 -12.9,-0.5 -19.6,0.3 -56.7,6.7 -98.7,63.1 -93.8,126 l 190.2,2428.8 c 4.9,62.9 54.9,108.5 111.7,101.8 56.7,-6.7 98.7,-63.1 93.8,-126.1 l -190.2,-2428.8 c -4.4,-55.5 -43.9,-97.6 -92.1,-102"
         style="fill:#f7cc7f;fill-opacity:1;fill-rule:nonzero;stroke:none"
         id="path79" />
      <path
         d="m 19161.8,8318.7 c 0.1,-1.8 0.2,-3.5 0.4,-5.3 v 0 c 8.9,-98.8 85.5,-172.8 170.9,-165.1 l 2413.1,216 c 85.5,7.6 147.5,93.9 138.6,192.7 -0.4,4.2 -0.9,8.3 -1.6,12.4 l -2721.4,-250.7"
         style="fill:#f7cc7f;fill-opacity:1;fill-rule:nonzero;stroke:none"
         id="path81" />
      <path
         d="m 20842.1,5709.9 c -158,-87.6 -641,66 -641,79.9 -6.9,-132 -540.8,-1424 -540.8,-1424 l 0.4,-397.5 c 0,0 1100.1,-52.4 1084.3,44.8 -15.8,97.2 -75,34 -294.4,217.6 -19.5,16.3 -327.6,87.8 -244.3,270.2 168,367.3 524.6,979.7 635.8,1209"
         style="fill:#f7a491;fill-opacity:1;fill-rule:nonzero;stroke:none"
         id="path83" />
      <path
         d="m 19624.5,3954.1 1204.3,-0.3 c 43.4,4.4 53.6,39.8 38.2,61.3 -31.6,44.2 -262.4,148.6 -417.5,217.8 -270.2,-31.5 -745.2,72.4 -788.7,134 -114.4,-153.2 -60.5,-407.8 -36.3,-412.8"
         style="fill:#3c8f7c;fill-opacity:1;fill-rule:nonzero;stroke:none"
         id="path85" />
      <path
         d="m 19360.4,6637.5 c -16.3,48.9 1036.8,495.8 1083.9,444.7 83.4,-90.3 -569.8,-1785.7 -569.8,-1785.7 l 750.5,-229.3 c 0,0 780.1,1958.7 747.5,2317 -32.5,358.2 -423.3,765.3 -1270.1,504.8 -846.8,-260.6 -742,-1251.5 -742,-1251.5"
         style="fill:#355389;fill-opacity:1;fill-rule:nonzero;stroke:none"
         id="path87" />
      <path
         d="m 21540.8,5487.1 c -177.8,32.3 -408.2,41.5 -592.7,44.7 21.8,-164.2 127.3,-1006.3 108,-1058.1 -78.1,-209.6 -251.5,-307.7 -251.5,-307.7 0,0 817.7,-737.8 867,-652.6 49.4,85.2 -36.4,73.8 -89.8,354.9 -4.7,25 -123,417.4 -130.3,629 -14,403.6 83.2,765.6 89.3,989.8"
         style="fill:#f7a491;fill-opacity:1;fill-rule:nonzero;stroke:none"
         id="path89" />
      <path
         d="m 21278.4,8242.1 c -114.1,60.8 -410.2,63 -735.8,41.9 -634.9,-41.2 -1261.6,-166.1 -1865.5,-366.2 L 18273,7784 l 1.3,414.3 c 0,0 -1285.6,215.1 -1330.4,-103.5 -67.3,-479.8 16.3,-1454 444.6,-1671.4 1330.5,-675.4 3195,1075.9 3201.8,846.8 9,-307.7 268.4,-1452.8 334.8,-1954.1 184.4,-3.2 501.3,-3.1 638.8,28.5 26.7,982.1 39.2,2724.2 -285.5,2897.5"
         style="fill:#466eb6;fill-opacity:1;fill-rule:nonzero;stroke:none"
         id="path91" />
      <path
         d="m 20779.6,4148.7 919.3,-734.2 c 36.4,-24.2 66.6,-3.3 68.4,23.1 3.6,54.3 -108.8,281.3 -184.9,433.1 -229,146.9 -531.1,529.8 -525.6,605 -97,-81.8 -292.7,-307.7 -277.2,-327"
         style="fill:#3c8f7c;fill-opacity:1;fill-rule:nonzero;stroke:none"
         id="path93" />
      <path
         d="m 18699,12247 c -30.8,282.3 -63.4,565.6 -297.3,772.5 -189.4,167.4 -430.1,195.8 -668.2,106.2 -674.5,-253.8 -327,-852.8 -1187,-1456.8 -267.3,-187.7 -561.8,-316.1 -763,-568.8 -281.7,-353.8 -175.3,-779.2 81.3,-1063.3 1228.2,-1359.2 2599.3,476.4 2697.8,917.1 73.2,327.8 156.3,1111.4 136.4,1293.1"
         style="fill:#13375b;fill-opacity:1;fill-rule:nonzero;stroke:none"
         id="path95" />
      <path
         d="m 18449.6,10659.8 c -100.3,184.9 -203.6,331.7 -203.6,331.7 -104.1,185 -372.9,278.5 -372.9,278.5 0,0 -89.9,-1.8 -193.2,-6.9 -6.4,-17.1 -12.9,-29.3 -19.5,-34.2 -38.8,-29.1 -261.2,8.4 -404.8,-89.1 -481.5,-412.7 -348.3,-2413.2 -310.5,-3045 l 1466.4,-13.9 c 0,0 -184.9,1359.5 113,1708.8 207.5,243.2 74,595.7 -74.9,870.1"
         style="fill:#50bfa5;fill-opacity:1;fill-rule:nonzero;stroke:none"
         id="path97" />
      <path
         d="m 17788.7,11946.8 c 0,0 -80.6,-575.6 -136.9,-715.5 -56.3,-139.9 309.5,-439 613.9,-529.9 304.4,-90.8 -93,309 -80.4,458.6 12.6,149.5 68,857.5 68,857.5 l -464.6,-70.7"
         style="fill:#f7a491;fill-opacity:1;fill-rule:nonzero;stroke:none"
         id="path99" />
      <path
         d="m 18237.9,11814.5 c 8.9,117.1 15.4,203 15.4,203 l -464.6,-70.7 c 0,0 -11.7,-67.6 -24.7,-163.2 188.4,-109.3 357.7,-74.8 473.9,30.9"
         style="fill:#f47458;fill-opacity:1;fill-rule:nonzero;stroke:none"
         id="path101" />
      <path
         d="m 17934.4,12998.2 c 0,0 -183.1,-41.3 -296.2,-213.8 -113,-172.5 -190.6,-680.5 181.8,-917.6 372.3,-237.1 661.9,98.3 666.7,425.4 4.8,327.2 -65.3,763.7 -552.3,706"
         style="fill:#f7a491;fill-opacity:1;fill-rule:nonzero;stroke:none"
         id="path103" />
      <path
         d="m 18572,12394.6 c -31.8,-78.9 -94.8,-127.9 -140.8,-109.4 -46,18.5 -57.5,97.5 -25.7,176.4 31.7,79 94.7,128 140.7,109.4 46,-18.5 57.5,-97.5 25.8,-176.4"
         style="fill:#f7a491;fill-opacity:1;fill-rule:nonzero;stroke:none"
         id="path105" />
      <path
         d="m 17989.3,13008.9 c 0,0 -233.4,-523.6 -438.5,-570.3 -205.1,-46.8 -202.1,-310.3 -202.1,-310.3 0,0 4.5,608.5 196.8,748 192.2,139.6 443.8,132.6 443.8,132.6"
         style="fill:#13375b;fill-opacity:1;fill-rule:nonzero;stroke:none"
         id="path107" />
      <path
         d="m 17632.3,12329.7 c 27,-85 2.3,-168.7 -55.2,-187 -57.5,-18.2 -126,35.9 -153,120.9 -27,85.1 -2.3,168.8 55.2,187.1 57.5,18.2 126,-35.9 153,-121"
         style="fill:#f7a491;fill-opacity:1;fill-rule:nonzero;stroke:none"
         id="path109" />
      <path
         d="m 20255,8549.5 c -88,31.8 -218.9,35.8 -216.7,47.4 8.8,47 397.5,-103.8 345,-35.2 -29.3,38.2 -320.1,173.5 -390.9,151.2 -68.6,-21.7 -519,-148.1 -519,-148.1 l -1231.1,288.5 c 0,0 -310.7,706.1 -341.1,1312.8 -256.8,-34.8 -431.7,-98.2 -654.9,-222.1 107.6,-580.2 369.3,-1520.6 658.6,-1697.1 121.6,-74.2 1574.6,88.9 1574.6,88.9 0,0 320.2,22.6 372.5,42.7 39.7,15.3 141.9,72.8 197.4,88.6 126.4,35.7 351.4,-54.1 352.1,-29.3 0.5,18 -56.6,79.2 -146.5,111.7"
         style="fill:#f7a491;fill-opacity:1;fill-rule:nonzero;stroke:none"
         id="path111" />
      <path
         d="m 17908.8,10814.3 c -11.9,186.6 -82.6,366.9 -281.2,424.9 -123.1,36 -261.2,1.6 -359.6,-78.8 -117,-95.6 -149.7,-248.9 -149.1,-394 1.2,-329.6 23.7,-671.2 83.9,-995.7 223.2,123.9 483.8,198.4 740.7,233.2 -0.1,1.9 -19.1,563.7 -34.7,810.4"
         style="fill:#96d9c9;fill-opacity:1;fill-rule:nonzero;stroke:none"
         id="path113" />
      <path
         d="m 14094.5,10462 -1908.6,355.4 c -38.3,7.2 -63.6,44 -56.5,82.4 l 239.1,1283.9 c 7.2,38.3 44,63.6 82.4,56.5 l 1908.5,-355.4 c 38.4,-7.1 63.7,-44 56.5,-82.3 l -239.1,-1284 c -7.1,-38.3 -44,-63.6 -82.3,-56.5"
         style="fill:#f7cc7f;fill-opacity:1;fill-rule:nonzero;stroke:none"
         id="path115" />
      <path
         d="m 13186,11929.8 -581,108.2 c -38.3,7.2 -63.6,44 -56.5,82.4 l 36.4,195.3 c 7.2,38.4 44,63.7 82.4,56.5 l 580.9,-108.2 c 38.4,-7.1 63.6,-44 56.5,-82.3 l -36.4,-195.4 c -7.1,-38.3 -44,-63.6 -82.3,-56.5"
         style="fill:#f7cc7f;fill-opacity:1;fill-rule:nonzero;stroke:none"
         id="path117" />
      <path
         d="m 14181.4,10511.1 c -9.9,-35.1 -45,-56.9 -80.9,-50.2 l -1921,357.7 c -35.7,6.7 -60.6,39.4 -57.4,75.6 l 100.5,1150.9 c 1.8,19.8 11.8,38 27.6,50.1 15.9,12 36.1,16.8 55.7,13.2 L 14440,11711 c 19.5,-3.7 36.6,-15.3 47,-32.2 10.5,-16.9 13.4,-37.3 8,-56.4 l -313.6,-1111.3"
         style="fill:#fae0b2;fill-opacity:1;fill-rule:nonzero;stroke:none"
         id="path119" />
      <path
         d="m 22935.4,14716.5 -326.8,-89.3 -70.4,396.1 106.9,19 49.6,-278.9 212.1,57.9 28.6,-104.8"
         style="fill:#50bfa5;fill-opacity:1;fill-rule:nonzero;stroke:none"
         id="path121" />
      <path
         d="m 12523.1,9277.2 c 81.9,6.7 207.5,-29.4 263.9,-67.6 8.4,-7.9 73.2,-33.7 140.6,-145.3 l -15.2,-10.5 c -71,74.4 -118.8,91.1 -175.8,108.2 -93.8,24.1 -188.4,6.1 -196.1,1.9 l -17.4,113.3"
         style="fill:#355389;fill-opacity:1;fill-rule:nonzero;stroke:none"
         id="path123" />
      <path
         d="m 12920,9059.1 c 0,0 -498.7,-83.2 -452.2,-472.8 46.5,-389.6 572.6,-692.6 1042.2,-451.7 631.6,324.1 382.1,1148.2 -67.5,1211.9 -449.5,63.7 -522.5,-287.4 -522.5,-287.4"
         style="fill:#f47458;fill-opacity:1;fill-rule:nonzero;stroke:none"
         id="path125" />
      <path
         d="m 13131.6,9230.6 c 0,0 130.1,133.6 415.1,12.1 285.1,-121.5 305.7,-688.2 51.5,-655.3 -254.3,32.9 -669.9,561.5 -466.6,643.2"
         style="fill:#f48c7f;fill-opacity:1;fill-rule:nonzero;stroke:none"
         id="path127" />
      <path
         d="m 16562.1,14406.1 -2051,-731.6 c -66.1,-23.6 -138.8,10.9 -162.4,77 l -378.5,1061.2 c -23.6,66.1 10.9,138.9 77,162.4 l 2051,731.7 c 66.1,23.5 138.8,-10.9 162.4,-77 l 378.5,-1061.3 c 23.6,-66.1 -10.8,-138.8 -77,-162.4"
         style="fill:#86b1f2;fill-opacity:1;fill-rule:nonzero;stroke:none"
         id="path129" />
      <path
         d="m 15202.7,14678.9 c 75.4,-211.4 -34.8,-444 -246.3,-519.4 -211.4,-75.4 -443.9,34.8 -519.4,246.3 -75.4,211.4 34.9,443.9 246.3,519.4 211.4,75.4 444,-34.9 519.4,-246.3"
         style="fill:#ffffff;fill-opacity:1;fill-rule:nonzero;stroke:none"
         id="path131" />
      <path
         d="m 14878.1,14735.8 c 22.3,-62.4 -10.3,-130.9 -72.6,-153.2 -62.4,-22.2 -130.9,10.3 -153.2,72.6 -22.2,62.4 10.3,131 72.7,153.2 62.3,22.2 130.9,-10.3 153.1,-72.6"
         style="fill:#86b1f2;fill-opacity:1;fill-rule:nonzero;stroke:none"
         id="path133" />
      <path
         d="m 15073.4,14401.6 -360.7,-128.7 -14.5,40.5 c -26.3,73.8 12.2,155.1 86.1,181.4 l 93.2,33.3 c 73.9,26.3 155.1,-12.2 181.5,-86.1 l 14.4,-40.4"
         style="fill:#86b1f2;fill-opacity:1;fill-rule:nonzero;stroke:none"
         id="path135" />
      <path
         d="m 15253.2,14900.8 c -21.8,0 -41.4,13.8 -48.8,34.4 -9.6,26.9 4.5,56.6 31.4,66.2 l 896.6,319.8 c 5.6,2 11.5,3.1 17.4,3.1 21.9,0 41.5,-13.9 48.8,-34.5 9.6,-26.9 -4.4,-56.6 -31.4,-66.2 l -896.5,-319.8 c -5.7,-2 -11.5,-3 -17.5,-3"
         style="fill:#ffffff;fill-opacity:1;fill-rule:nonzero;stroke:none"
         id="path137" />
      <path
         d="m 15495.3,14677.2 c -21.9,0 -41.5,13.9 -48.9,34.5 -9.6,26.9 4.5,56.6 31.5,66.2 l 700.2,249.8 c 5.6,2 11.5,3 17.4,3 21.9,0 41.5,-13.8 48.8,-34.4 4.7,-13 4,-27.1 -1.9,-39.6 -6,-12.5 -16.4,-22 -29.5,-26.6 l -700.2,-249.8 c -5.6,-2 -11.5,-3.1 -17.4,-3.1"
         style="fill:#ffffff;fill-opacity:1;fill-rule:nonzero;stroke:none"
         id="path139" />
      <path
         d="m 19748.9,6401.3 h -4952.4 c -153.8,0 -278.4,-124.7 -278.4,-278.5 v -234.2 c 0,-153.8 124.6,-278.5 278.4,-278.5 h 4952.4 l -2.6,2.7 c -211.8,220.5 -210.7,569.3 2.6,788.5"
         style="fill:#f47458;fill-opacity:1;fill-rule:nonzero;stroke:none"
         id="path141" />
      <path
         d="m 19661.3,6284.2 h -2647.5 c -153.8,0 -278.5,-124.7 -278.5,-278.5 v 0 c 0,-153.8 124.7,-278.5 278.5,-278.5 h 2647.4 c -97.3,172.5 -97.2,384.7 0.1,557"
         style="fill:#fae0b2;fill-opacity:1;fill-rule:nonzero;stroke:none"
         id="path143" />
      <path
         d="m 23802.2,6378.5 -375.4,941.8 c -18.9,47.4 4.2,101.1 51.6,120 l 1350.8,538.4 c 47.4,18.9 101.1,-4.2 120,-51.6 l 375.4,-941.8 c 18.9,-47.4 -4.2,-101.1 -51.6,-120 l -1350.8,-538.4 c -47.4,-18.9 -101.1,4.2 -120,51.6"
         style="fill:#fae0b2;fill-opacity:1;fill-rule:nonzero;stroke:none"
         id="path145" />
      <path
         d="m 25076.5,6923.1 -337.4,846.3 c -5.4,13.6 1.2,29 14.8,34.4 v 0 c 13.6,5.4 29,-1.2 34.5,-14.8 l 337.3,-846.3 c 5.4,-13.6 -1.2,-29 -14.8,-34.4 v 0 c -13.6,-5.4 -29,1.2 -34.4,14.8"
         style="fill:#466eb6;fill-opacity:1;fill-rule:nonzero;stroke:none"
         id="path147" />
      <path
         d="m 24915.7,7034.6 -276.9,694.8 c -5.4,13.6 1.2,29 14.8,34.4 v 0 c 13.6,5.5 29,-1.2 34.4,-14.8 l 277,-694.8 c 5.4,-13.6 -1.2,-29 -14.8,-34.5 v 0 c -13.6,-5.4 -29,1.2 -34.5,14.9"
         style="fill:#466eb6;fill-opacity:1;fill-rule:nonzero;stroke:none"
         id="path149" />
      <path
         d="m 24875.8,6843.1 -337.4,846.3 c -5.4,13.6 1.2,29 14.8,34.4 v 0 c 13.6,5.5 29.1,-1.2 34.5,-14.8 l 337.3,-846.3 c 5.4,-13.6 -1.2,-29 -14.8,-34.4 v 0 c -13.6,-5.4 -29,1.2 -34.4,14.8"
         style="fill:#466eb6;fill-opacity:1;fill-rule:nonzero;stroke:none"
         id="path151" />
      <path
         d="m 24698.5,6996.2 -260.4,653.2 c -5.4,13.6 1.2,29 14.8,34.4 v 0 c 13.6,5.5 29,-1.2 34.4,-14.8 l 260.4,-653.2 c 5.4,-13.6 -1.2,-29 -14.8,-34.4 v 0 c -13.6,-5.4 -29,1.2 -34.4,14.8"
         style="fill:#466eb6;fill-opacity:1;fill-rule:nonzero;stroke:none"
         id="path153" />
      <path
         d="m 25067.4,7859.7 -6.8,17 c -2.5,6.3 -9.3,9.5 -15.2,7.1 l -128.2,-51.1 c -5.9,-2.3 -8.7,-9.4 -6.2,-15.6 l 6.8,-17.1 c 2.5,-6.2 9.3,-9.4 15.2,-7.1 l 128.2,51.1 c 5.9,2.4 8.7,9.4 6.2,15.7"
         style="fill:#355389;fill-opacity:1;fill-rule:nonzero;stroke:none"
         id="path155" />
      <path
         d="m 25096.5,7786.8 -6.8,17 c -2.5,6.3 -9.3,9.5 -15.3,7.1 l -128.2,-51.1 c -5.9,-2.3 -8.6,-9.3 -6.1,-15.6 l 6.8,-17.1 c 2.5,-6.2 9.3,-9.4 15.2,-7.1 l 128.2,51.1 c 5.9,2.4 8.7,9.4 6.2,15.7"
         style="fill:#355389;fill-opacity:1;fill-rule:nonzero;stroke:none"
         id="path157" />
      <path
         d="m 25125.5,7713.9 -6.8,17 c -2.5,6.3 -9.3,9.5 -15.2,7.1 l -128.2,-51.1 c -5.9,-2.3 -8.7,-9.3 -6.2,-15.6 l 6.8,-17.1 c 2.5,-6.2 9.3,-9.4 15.2,-7.1 l 128.3,51.2 c 5.8,2.3 8.6,9.3 6.1,15.6"
         style="fill:#355389;fill-opacity:1;fill-rule:nonzero;stroke:none"
         id="path159" />
      <path
         d="m 25154.6,7641 -6.8,17 c -2.5,6.3 -9.3,9.5 -15.2,7.1 l -128.2,-51.1 c -5.9,-2.3 -8.7,-9.3 -6.2,-15.6 l 6.8,-17.1 c 2.5,-6.2 9.3,-9.4 15.2,-7 l 128.2,51.1 c 5.9,2.3 8.7,9.3 6.2,15.6"
         style="fill:#355389;fill-opacity:1;fill-rule:nonzero;stroke:none"
         id="path161" />
      <path
         d="m 25183.6,7568.1 -6.8,17 c -2.5,6.3 -9.3,9.5 -15.2,7.1 l -128.2,-51.1 c -5.9,-2.3 -8.6,-9.3 -6.2,-15.6 l 6.8,-17 c 2.5,-6.3 9.4,-9.5 15.3,-7.1 l 128.2,51.1 c 5.9,2.3 8.6,9.3 6.1,15.6"
         style="fill:#355389;fill-opacity:1;fill-rule:nonzero;stroke:none"
         id="path163" />
      <path
         d="m 25212.7,7495.2 -6.8,17 c -2.5,6.3 -9.3,9.5 -15.2,7.1 l -128.2,-51.1 c -5.9,-2.3 -8.7,-9.3 -6.2,-15.6 l 6.8,-17 c 2.5,-6.3 9.3,-9.5 15.2,-7.1 l 128.2,51.1 c 5.9,2.3 8.7,9.3 6.2,15.6"
         style="fill:#355389;fill-opacity:1;fill-rule:nonzero;stroke:none"
         id="path165" />
      <path
         d="m 25241.7,7422.3 -6.8,17 c -2.5,6.3 -9.3,9.5 -15.2,7.1 l -128.2,-51.1 c -5.9,-2.3 -8.6,-9.3 -6.1,-15.6 l 6.8,-17 c 2.5,-6.3 9.3,-9.5 15.2,-7.1 l 128.2,51.1 c 5.9,2.3 8.6,9.3 6.1,15.6"
         style="fill:#355389;fill-opacity:1;fill-rule:nonzero;stroke:none"
         id="path167" />
      <path
         d="m 25270.8,7349.4 -6.8,17 c -2.5,6.3 -9.3,9.5 -15.2,7.1 l -128.2,-51.1 c -5.9,-2.3 -8.7,-9.3 -6.2,-15.6 l 6.8,-17 c 2.5,-6.3 9.3,-9.5 15.2,-7.1 l 128.2,51.1 c 5.9,2.3 8.7,9.3 6.2,15.6"
         style="fill:#355389;fill-opacity:1;fill-rule:nonzero;stroke:none"
         id="path169" />
      <path
         d="m 25299.8,7276.5 -6.8,17 c -2.5,6.3 -9.3,9.5 -15.2,7.1 l -128.2,-51.1 c -5.9,-2.3 -8.6,-9.3 -6.1,-15.6 l 6.8,-17 c 2.5,-6.3 9.3,-9.5 15.2,-7.1 l 128.2,51.1 c 5.9,2.3 8.6,9.3 6.1,15.6"
         style="fill:#355389;fill-opacity:1;fill-rule:nonzero;stroke:none"
         id="path171" />
      <path
         d="m 25328.9,7203.6 -6.8,17 c -2.5,6.3 -9.3,9.5 -15.2,7.1 l -128.2,-51.1 c -5.9,-2.3 -8.7,-9.3 -6.2,-15.6 l 6.8,-17 c 2.5,-6.3 9.3,-9.5 15.2,-7.1 l 128.2,51.1 c 5.9,2.3 8.7,9.3 6.2,15.6"
         style="fill:#355389;fill-opacity:1;fill-rule:nonzero;stroke:none"
         id="path173" />
      <path
         d="m 25357.9,7130.7 -6.8,17.1 c -2.4,6.2 -9.2,9.4 -15.2,7 l -128.2,-51.1 c -5.9,-2.3 -8.6,-9.3 -6.1,-15.6 l 6.8,-17 c 2.5,-6.3 9.3,-9.5 15.2,-7.1 l 128.2,51.1 c 5.9,2.3 8.6,9.3 6.1,15.6"
         style="fill:#355389;fill-opacity:1;fill-rule:nonzero;stroke:none"
         id="path175" />
      <path
         d="m 25387,7057.8 -6.8,17.1 c -2.5,6.2 -9.3,9.4 -15.2,7.1 l -128.2,-51.2 c -5.9,-2.3 -8.7,-9.3 -6.2,-15.6 l 6.8,-17 c 2.5,-6.3 9.3,-9.5 15.2,-7.1 l 128.2,51.1 c 5.9,2.4 8.7,9.3 6.2,15.6"
         style="fill:#355389;fill-opacity:1;fill-rule:nonzero;stroke:none"
         id="path177" />
      <path
         d="m 25741.2,7132.8 -536.1,-763.4 c -1.2,-1.7 -2.2,-3.6 -2.8,-5.6 l -54.7,-167.7 c -6.3,-19.5 16.2,-35.7 32.6,-23.3 l 143.5,108.2 c 1.8,1.3 3.3,2.9 4.6,4.7 l 537.5,765.4 c 6.9,9.8 4.2,23.3 -5.9,29.7 l -90.2,57.7 c -9.5,6 -22,3.5 -28.5,-5.7"
         style="fill:#b75742;fill-opacity:1;fill-rule:nonzero;stroke:none"
         id="path179" />
      <path
         d="m 25327.7,6284.9 -1.3,-1.9 -138.5,-104.4 -37.7,25.3 51.8,159 c 40.5,-22.2 89.1,-45 125.7,-78"
         style="fill:#f7cc7f;fill-opacity:1;fill-rule:nonzero;stroke:none"
         id="path181" />
      <path
         d="m 20309.7,15397.5 c 77.2,-61.6 211.5,-259.8 382.7,-398.9 100.2,-81.4 177.4,-60.7 305.3,-76.2 606.8,-73.3 442.4,-197.3 515.2,-209.5 -20.7,-47.6 -209.8,-449.5 -245.1,-530.7 -32.6,-74.9 -88.9,-108.4 -170.5,-97.2 -125.5,17.4 -252.1,30.3 -375.7,57.1 -316.7,68.7 -492.9,227.1 -719.9,419.4 -60.2,51.1 -75,114.7 -43.8,186.9 145.3,335.7 336.1,618.2 351.8,649.1"
         style="fill:#466eb6;fill-opacity:1;fill-rule:nonzero;stroke:none"
         id="path183" />
      <path
         d="m 21578.6,14229.4 c -2.7,-132.2 7.4,-158.7 -49.4,-138.7 -34.2,12.1 -67.3,27.8 -99.6,44.5 -22.7,11.7 -23.6,27.2 -5.1,45.8 26.9,27.1 54.6,53.4 81.5,79.7 -19.7,51.9 2.9,112.2 51.4,140.6 9.9,5.8 2.7,-6.5 87.2,188 -279.5,34.5 -476.7,57.6 -817.6,99.5 -91.1,11.2 -172.2,46.7 -242.7,105.7 -243.6,203.7 -487.1,407.5 -730.4,611.4 -33,27.7 -37.2,68.3 -11,99.5 20.1,23.8 46.6,25 75.2,21.4 77.8,-9.8 840.7,-104.5 918.2,-113.6 101.8,-11.9 191.4,-50.2 270.1,-116.1 239.2,-200.4 479.1,-400 718.6,-599.9 32.9,-27.5 41.8,-52.7 30.2,-83.2 -12.7,-33.5 -40.4,-49.5 -82.2,-40.5 -30.3,6.6 -43.6,-2.6 -54,-30.6 -47,-126.4 -79.8,-154.4 -68.5,-200.6 8.8,-35.7 -33.6,-97.4 -71.9,-112.9"
         style="fill:#86b1f2;fill-opacity:1;fill-rule:nonzero;stroke:none"
         id="path185" />
      <path
         d="m 22844.3,5246.1 139,-132.6 c 328.9,-313.7 597.1,-685.3 791.1,-1096.2 l 21.3,-45.1 c 0,0 364.1,-32.2 414.9,297 v 0 c -319.4,360.6 -582.3,745.7 -799.3,1174 l -65.8,153.9 -501.2,-351"
         style="fill:#466eb6;fill-opacity:1;fill-rule:nonzero;stroke:none"
         id="path187" />
      <path
         d="m 23345.1,5597.5 c 17.9,-25.6 -79.7,-124.6 -218.1,-221 -138.3,-96.5 -265.6,-155.1 -283.4,-129.5 -17.9,25.6 80.4,125.8 218.7,222.2 138.3,96.5 265,154 282.8,128.3"
         style="fill:#86b1f2;fill-opacity:1;fill-rule:nonzero;stroke:none"
         id="path189" />
      <path
         d="m 23345.7,5596.6 -0.4,0.5 c 0,0 -277.2,-234.6 -391.4,-258.5 l 35.3,-48 c 41.7,22.5 89.1,51.8 137.8,85.9 136.8,95.3 233.7,193.1 218.7,220.1"
         style="fill:#355389;fill-opacity:1;fill-rule:nonzero;stroke:none"
         id="path191" />
      <path
         d="m 23716,4915.5 c 0.5,-40.4 -15,-215 -305.4,-287.8 19.1,-26 37.9,-52.3 56.3,-78.8 183.8,54.4 266.5,148.7 303.7,220.6 5.8,11.3 12.9,26.6 17.6,38.4 -24.5,35.6 -48.6,71.4 -72.2,107.6"
         style="fill:#b75742;fill-opacity:1;fill-rule:nonzero;stroke:none"
         id="path193" />
      <path
         d="m 23436.7,4679.3 -427.4,15.3 101.3,-86 -60.5,-109.8 404.5,103.1 -17.9,77.4"
         style="fill:#b75742;fill-opacity:1;fill-rule:nonzero;stroke:none"
         id="path195" />
      <path
         d="m 23475.6,4579.9 -151.8,-264.5 106.8,40.6 41.1,-84 71.4,278.2 -67.5,29.7"
         style="fill:#b75742;fill-opacity:1;fill-rule:nonzero;stroke:none"
         id="path197" />
      <path
         d="m 23533.6,4508.2 c -75,-5.3 -140.3,53.1 -145.8,130.4 -5.5,77.3 50.9,144.3 126,149.6 75,5.3 140.3,-53.1 145.8,-130.4 5.5,-77.3 -50.9,-144.3 -126,-149.6"
         style="fill:#f47458;fill-opacity:1;fill-rule:nonzero;stroke:none"
         id="path199" />
      <path
         d="m 24440.8,10509.9 -900,803.1 c -58.5,52.2 -34.2,159.6 46.5,205.3 l 718.3,406.7 c 46,26 97.8,23.6 131.1,-6.2 l 900,-803.1 c 58.5,-52.2 34.2,-159.5 -46.5,-205.2 l -718.3,-406.7 c -46,-26.1 -97.8,-23.7 -131.1,6.1"
         style="fill:#9bc1f9;fill-opacity:1;fill-rule:nonzero;stroke:none"
         id="path201" />
      <path
         d="m 24398.1,11148.8 -75,617 c -2.9,23.6 14.3,48.9 38.4,56.4 24.1,7.5 46,-5.6 48.9,-29.2 l 69,-567.8 682.5,-165 c 22.2,-5.4 32.5,-29.4 22.9,-53.6 -9.6,-24.2 -35.5,-39.5 -57.8,-34.1 l -728.9,176.3"
         style="fill:#ffffff;fill-opacity:1;fill-rule:nonzero;stroke:none"
         id="path203" />
      <path
         d="m 9204.18,2791.5 c -48.17,0 -87.22,-45.2 -87.22,-101 0,-55.7 39.05,-100.9 97.64,-33.1 h 17726.2 c 22.7,0 41.1,29.7 41.2,66.6 v 0 c 0.2,37.2 -18.3,67.5 -41.2,67.5 H 9204.18"
         style="fill:#184655;fill-opacity:1;fill-rule:nonzero;stroke:none"
         id="path205" />
      <path
         d="m 12645.5,13975.1 93,-184.1 210.2,6.8 89.7,-213.6 221.6,76.2 112.1,-237.1 212.7,45.1 145.1,-210.6 -79.7,-54.9 -108.5,157.4 -224.5,-47.6 -107.7,228 -225.3,-77.5 -99,235.7 -205.2,-6.6 -86.3,170.6 -133.8,-32.6 -22.9,94.1 208.5,50.7"
         style="fill:#f7cc7f;fill-opacity:1;fill-rule:nonzero;stroke:none"
         id="path207" />
      <path
         d="m 23901,9267.3 191,-77.6 154,143.2 208,-102.2 117,203.1 240.3,-105.2 130.8,173.7 247.7,-63.4 -24,-93.7 -185.2,47.3 -138,-183.3 -231,101.1 -119,-206.5 -229.5,112.8 -150.4,-139.8 -177,71.9 -79.6,-112.5 -79,55.9 123.9,175.2"
         style="fill:#50bfa5;fill-opacity:1;fill-rule:nonzero;stroke:none"
         id="path209" />
      <path
         style="fill:none;stroke:#000000;stroke-width:7.5px;stroke-linecap:butt;stroke-linejoin:miter;stroke-opacity:1"
         d="m 9957.9004,2761.9981 29.5638,29.4285"
         id="path136" />
    </g>
  </g>
</svg>
